<svg xmlns="http://www.w3.org/2000/svg" width="34" height="34" viewBox="0 0 34 34" fill="none">
  <line x1="17" y1="2"    x2="17" y2="32"   stroke="#c8a84b" stroke-width="2"   stroke-linecap="round"/>
  <line x1="2.2" y1="9.5" x2="31.8" y2="24.5" stroke="#c8a84b" stroke-width="2" stroke-linecap="round"/>
  <line x1="2.2" y1="24.5" x2="31.8" y2="9.5" stroke="#c8a84b" stroke-width="2" stroke-linecap="round"/>
  <line x1="17" y1="10" x2="13" y2="7"  stroke="#c8a84b" stroke-width="1.4" stroke-linecap="round"/>
  <line x1="17" y1="10" x2="21" y2="7"  stroke="#c8a84b" stroke-width="1.4" stroke-linecap="round"/>
  <line x1="17" y1="24" x2="13" y2="27" stroke="#c8a84b" stroke-width="1.4" stroke-linecap="round"/>
  <line x1="17" y1="24" x2="21" y2="27" stroke="#c8a84b" stroke-width="1.4" stroke-linecap="round"/>
  <line x1="23.5" y1="12.3" x2="27.2" y2="11.3" stroke="#c8a84b" stroke-width="1.4" stroke-linecap="round"/>
  <line x1="23.5" y1="12.3" x2="22.2" y2="8.8"  stroke="#c8a84b" stroke-width="1.4" stroke-linecap="round"/>
  <line x1="23.5" y1="21.7" x2="27.2" y2="22.7" stroke="#c8a84b" stroke-width="1.4" stroke-linecap="round"/>
  <line x1="23.5" y1="21.7" x2="22.2" y2="25.2" stroke="#c8a84b" stroke-width="1.4" stroke-linecap="round"/>
  <line x1="10.5" y1="12.3" x2="6.8" y2="11.3"  stroke="#c8a84b" stroke-width="1.4" stroke-linecap="round"/>
  <line x1="10.5" y1="12.3" x2="11.8" y2="8.8"  stroke="#c8a84b" stroke-width="1.4" stroke-linecap="round"/>
  <line x1="10.5" y1="21.7" x2="6.8" y2="22.7"  stroke="#c8a84b" stroke-width="1.4" stroke-linecap="round"/>
  <line x1="10.5" y1="21.7" x2="11.8" y2="25.2" stroke="#c8a84b" stroke-width="1.4" stroke-linecap="round"/>
</svg>
